# xmcd CD database file
#
# Track frame offsets:
#	150
#	63006
#	101163
#	158450
#
# Disc length: 2659 seconds
#
# Revision: 0
# Processed by: cddbd v1.5.2PL0 Copyright (c) Steve Scherf et al.
# Submitted via: CDex 1.51
#
DISCID=240a6104
DTITLE=Rolf Kühn - Transfiguration
DYEAR=1967
DGENRE=Jazz
TTITLE0=Transfiguration
TTITLE1=Lunch Date
TTITLE2=Solo Flights
TTITLE3=But Strokes Of Folk
EXTD=YEAR: 1967
EXTT0=
EXTT1=
EXTT2=
EXTT3=
PLAYORDER=
